<svg width="151" height="151" viewBox="0 0 151 151" fill="none" xmlns="http://www.w3.org/2000/svg">
<circle cx="75.5" cy="75.5" r="74" stroke="#333333" stroke-width="3" stroke-dasharray="9 9"/>
<circle cx="76" cy="75" r="67" fill="#F27676" fill-opacity="0.81"/>
<path d="M41.8171 80.4977C41.2802 80.8534 40.736 81.0797 40.1843 81.1765C39.6353 81.2603 39.1294 81.2149 38.6665 81.0401C38.1985 80.8576 37.8137 80.5472 37.512 80.1088L38.6441 79.3588C38.9356 79.7142 39.3051 79.934 39.7527 80.0181C40.2029 80.0893 40.6926 79.9496 41.2217 79.5991C41.7274 79.264 42.0417 78.8766 42.1646 78.4368C42.2902 77.9842 42.2215 77.5595 41.9586 77.1627C41.7523 76.8514 41.4992 76.6553 41.1992 76.5742C40.8991 76.4931 40.5872 76.487 40.2634 76.556C39.9397 76.625 39.5213 76.7455 39.0082 76.9174C38.3786 77.1331 37.854 77.2792 37.4344 77.3556C37.0226 77.4269 36.6021 77.3921 36.1728 77.2511C35.7461 77.0972 35.3652 76.7673 35.0301 76.2616C34.7363 75.8181 34.5887 75.3505 34.5875 74.8586C34.5863 74.3668 34.7262 73.8935 35.007 73.4387C35.2957 72.9787 35.7045 72.5734 36.2336 72.2229C36.9961 71.7177 37.7448 71.4959 38.4798 71.5575C39.2226 71.614 39.8339 71.9367 40.3137 72.5257L39.1466 73.299C38.9015 73.0135 38.5577 72.8495 38.1152 72.8068C37.6675 72.7563 37.2063 72.8883 36.7317 73.2028C36.2882 73.4967 36.0038 73.8531 35.8783 74.2721C35.7477 74.6833 35.819 75.0951 36.0923 75.5074C36.2882 75.8031 36.5297 75.9902 36.8168 76.0686C37.1117 76.142 37.4132 76.1493 37.7214 76.0906C38.0323 76.019 38.4507 75.8985 38.9767 75.7292C39.6115 75.5213 40.1412 75.383 40.5659 75.3143C40.9855 75.2379 41.4125 75.274 41.847 75.4228C42.2763 75.5638 42.6611 75.8911 43.0013 76.4046C43.2642 76.8014 43.4066 77.2444 43.4286 77.7337C43.4505 78.223 43.3274 78.7132 43.0594 79.2043C42.7914 79.6954 42.3773 80.1265 41.8171 80.4977ZM43.6713 71.2079L46.1689 74.9775C46.3752 75.2888 46.5882 75.4667 46.8081 75.5113C47.0229 75.5482 47.2936 75.4583 47.6204 75.2418L48.4023 74.7237L48.9978 75.6224L48.0408 76.2564C47.4495 76.6482 46.9158 76.8059 46.4397 76.7295C45.9636 76.6531 45.5193 76.3037 45.1069 75.6812L42.6092 71.9116L41.7806 72.4606L41.2007 71.5853L42.0293 71.0363L40.9622 69.4257L42.0242 68.7221L43.0913 70.3326L44.7602 69.2268L45.3402 70.1021L43.6713 71.2079ZM47.7535 71.8116C47.3205 71.158 47.0738 70.4985 47.0136 69.8331C46.9482 69.1598 47.0548 68.535 47.3334 67.9585C47.6198 67.3769 48.047 66.8979 48.615 66.5216C49.1752 66.1504 49.7414 65.9488 50.3135 65.9168C50.8857 65.8848 51.3941 65.9846 51.8387 66.2162L51.0654 65.0491L52.1391 64.3377L56.3766 70.7333L55.3029 71.4447L54.5142 70.2543C54.5516 70.7669 54.4427 71.2869 54.1875 71.8143C53.9349 72.3287 53.5325 72.7689 52.98 73.1349C52.4121 73.5113 51.8058 73.7114 51.1611 73.7355C50.5165 73.7596 49.8944 73.6064 49.2948 73.2759C48.6951 72.9455 48.1814 72.4573 47.7535 71.8116ZM53.1764 68.2352C52.8568 67.7529 52.4812 67.3972 52.0495 67.1681C51.6179 66.9391 51.1729 66.8421 50.7146 66.877C50.259 66.899 49.8327 67.0415 49.4359 67.3044C49.0391 67.5673 48.7392 67.9004 48.5361 68.3036C48.3331 68.7069 48.2529 69.1519 48.2955 69.6387C48.3381 70.1255 48.5193 70.61 48.8389 71.0924C49.1637 71.5826 49.5444 71.9461 49.9812 72.1829C50.4129 72.4119 50.8565 72.5154 51.3122 72.4934C51.7627 72.4636 52.1864 72.3173 52.5832 72.0544C52.98 71.7914 53.2799 71.4584 53.483 71.0551C53.6886 70.6389 53.7702 70.1874 53.7275 69.7007C53.6798 69.2061 53.496 68.7176 53.1764 68.2352ZM55.6841 63.4836C55.6285 62.9942 55.7049 62.5349 55.9132 62.1058C56.1293 61.6715 56.4863 61.2894 56.9842 60.9595L57.7111 62.0565L57.431 62.2421C56.2406 63.0309 56.0733 64.071 56.929 65.3626L59.2334 68.8404L58.1714 69.5441L53.9338 63.1486L54.9959 62.4449L55.6841 63.4836ZM60.1629 60.2809L62.6606 64.0505C62.8668 64.3617 63.0799 64.5396 63.2998 64.5843C63.5145 64.6211 63.7853 64.5313 64.1121 64.3148L64.894 63.7967L65.4894 64.6953L64.5324 65.3294C63.9411 65.7212 63.4074 65.8789 62.9313 65.8025C62.4552 65.726 62.011 65.3766 61.5986 64.7542L59.1009 60.9846L58.2723 61.5336L57.6923 60.6583L58.5209 60.1093L57.4538 58.4987L58.5159 57.795L59.583 59.4056L61.2519 58.2998L61.8318 59.1751L60.1629 60.2809ZM68.8326 54.5365L67.4905 55.4258L71.1481 60.946L70.086 61.6497L66.4284 56.1295L65.5998 56.6785L65.0199 55.8032L65.8485 55.2542L65.5469 54.799C65.0726 54.0832 64.9101 53.4408 65.0592 52.8717C65.211 52.2897 65.6954 51.728 66.5123 51.1868L67.1 52.0737C66.6332 52.383 66.3644 52.6955 66.2936 53.0111C66.2255 53.3138 66.3306 53.6752 66.6089 54.0953L66.9105 54.5505L68.2526 53.6612L68.8326 54.5365ZM71.2412 53.1758C71.1856 52.6864 71.262 52.2271 71.4703 51.798C71.6864 51.3637 72.0434 50.9816 72.5413 50.6517L73.2682 51.7487L72.9881 51.9343C71.7977 52.7231 71.6304 53.7632 72.4861 55.0548L74.7905 58.5326L73.7285 59.2363L69.4909 52.8408L70.553 52.1371L71.2412 53.1758ZM80.9411 54.6085C80.342 55.0055 79.7071 55.2302 79.0365 55.2826C78.3737 55.3299 77.7373 55.1974 77.1273 54.8851C76.5198 54.5598 75.9971 54.0664 75.5589 53.4051C75.1258 52.7515 74.8844 52.083 74.8346 51.3995C74.7874 50.703 74.9212 50.0601 75.2361 49.4708C75.5458 48.8737 76.0041 48.3741 76.611 47.972C77.2179 47.5699 77.8566 47.3426 78.5272 47.2902C79.1927 47.2299 79.8304 47.356 80.4404 47.6683C81.0582 47.9755 81.5862 48.4598 82.0244 49.1212C82.4626 49.7825 82.7014 50.464 82.7408 51.1656C82.7829 51.8543 82.6452 52.4998 82.3276 53.102C82.0101 53.7043 81.5479 54.2064 80.9411 54.6085ZM80.3224 53.6749C80.7037 53.4223 81.0023 53.0957 81.2183 52.695C81.4343 52.2944 81.5249 51.8481 81.49 51.3562C81.4629 50.8591 81.2793 50.3538 80.939 49.8403C80.5988 49.3268 80.209 48.9581 79.7695 48.7342C79.3301 48.5104 78.8903 48.4211 78.4501 48.4665C78.0048 48.504 77.5915 48.6491 77.2102 48.9017C76.8212 49.1595 76.5226 49.4861 76.3144 49.8816C76.1088 50.2641 76.0273 50.6987 76.0699 51.1855C76.1126 51.6723 76.304 52.1724 76.6442 52.686C76.9896 53.2072 77.3743 53.585 77.7981 53.8192C78.2298 54.0482 78.6644 54.1465 79.102 54.1141C79.5344 54.0739 79.9412 53.9275 80.3224 53.6749ZM88.9234 39.7973C89.4213 39.4673 89.9344 39.2785 90.4626 39.2308C90.9857 39.1754 91.4967 39.2791 91.9955 39.5419C92.4944 39.8048 92.9397 40.2319 93.3315 40.8232L95.8292 44.5928L94.7788 45.2888L92.3817 41.6709C91.9589 41.0329 91.4772 40.6523 90.9366 40.5291C90.3985 40.3929 89.8611 40.5027 89.3242 40.8584C88.7718 41.2245 88.4508 41.6947 88.3611 42.2691C88.2663 42.8357 88.4406 43.4536 88.884 44.1227L91.2192 47.6473L90.1689 48.3432L87.7717 44.7253C87.349 44.0873 86.8673 43.7067 86.3266 43.5835C85.7886 43.4474 85.2512 43.5572 84.7143 43.9129C84.1619 44.2789 83.8409 44.7491 83.7512 45.3235C83.6564 45.8902 83.8307 46.508 84.274 47.1772L86.6093 50.7017L85.5473 51.4054L81.3098 45.0098L82.3718 44.3062L82.9827 45.2282C82.9711 44.7544 83.081 44.3121 83.3126 43.9011C83.5519 43.485 83.8856 43.1352 84.3135 42.8517C84.8503 42.496 85.4048 42.3021 85.977 42.2701C86.5492 42.2381 87.0911 42.3884 87.6027 42.7212C87.4826 42.1514 87.5463 41.6054 87.7937 41.0832C88.0411 40.561 88.4177 40.1323 88.9234 39.7973Z" fill="white"/>
<path d="M65.8867 96.5606C66.6424 97.7011 67.0424 98.9579 67.0868 100.331C67.1382 101.669 66.7894 103.035 66.0403 104.426C65.2983 105.783 64.1598 107.015 62.6251 108.121L64.2945 110.641L62.3038 111.96L60.6138 109.409C58.2921 110.679 56.0863 111.2 53.9965 110.974C51.893 110.726 50.154 109.655 48.7795 107.761L54.4405 104.01C55.3893 105.172 56.5197 105.572 57.8315 105.21L54.5753 100.295C52.683 100.952 51.1191 101.407 49.8834 101.659C48.6685 101.897 47.4096 101.821 46.1068 101.431C44.8039 101.04 43.651 100.089 42.648 98.5748C41.3977 96.6878 41.0894 94.7137 41.7231 92.6527C42.3775 90.5779 43.7556 88.7397 45.8575 87.1382L44.1882 84.6187L46.1789 83.2997L47.8482 85.8192C50.1355 84.5424 52.2756 84.0345 54.2688 84.2954C56.2619 84.5563 57.9768 85.6133 59.4134 87.4664L53.7213 91.2379C52.8549 90.2005 51.8453 89.8251 50.6923 90.1116L53.8867 94.9328C55.9239 94.2694 57.5327 93.8152 58.7131 93.5701C59.8936 93.3251 61.1352 93.3976 62.4381 93.7877C63.7479 94.1432 64.8974 95.0675 65.8867 96.5606ZM48.1131 94.5957C48.4566 95.1141 48.9006 95.4465 49.4453 95.5929C50.0106 95.7256 50.6833 95.7275 51.4632 95.5986L48.5986 91.2751C48.0866 91.7635 47.7816 92.2939 47.6834 92.8662C47.5714 93.4178 47.7147 93.9943 48.1131 94.5957ZM59.8841 103.984C60.4375 103.468 60.7599 102.897 60.8514 102.269C60.9636 101.628 60.8273 101.017 60.4426 100.436C60.0854 99.8971 59.6206 99.5784 59.0482 99.4802C58.4829 99.3475 57.786 99.3766 56.9575 99.5674L59.8841 103.984ZM61.191 83.2449L57.9141 78.2993L66.5301 72.5905L81.5749 95.2969L76.0383 98.9654L64.2704 81.2046L61.191 83.2449ZM82.2033 88.7484C82.5374 87.7214 82.6871 87.2492 82.6524 87.3319C83.5716 84.3058 84.2546 81.8688 84.7014 80.0211C85.169 78.1597 85.4155 76.3701 85.4411 74.6522C85.4666 72.9344 85.1084 71.5156 84.3665 70.3959C83.8032 69.5457 83.1665 69.0126 82.4565 68.7967C81.7465 68.5808 80.9975 68.7339 80.2095 69.2561C79.4216 69.7782 78.9987 70.491 78.9409 71.3946C78.8902 72.2638 79.222 73.2375 79.9365 74.3158L74.8042 77.7164C73.6778 75.9263 73.0756 74.2067 72.9975 72.5576C72.9401 70.8947 73.3065 69.3986 74.0968 68.0693C74.9078 66.7263 76.0287 65.5807 77.4595 64.6327C79.9272 62.9977 82.2021 62.4005 84.2844 62.841C86.3875 63.2678 88.1122 64.4973 89.4587 66.5295C90.9288 68.7483 91.539 71.3131 91.2893 74.2238C91.0259 77.1138 90.3202 80.2371 89.1723 83.5938L97.5706 78.0293L100.435 82.3528L84.8207 92.6987L82.2033 88.7484ZM95.2547 69.448C92.8915 65.8813 91.7141 62.6181 91.7225 59.6584C91.7516 56.6849 93.3007 54.1815 96.3697 52.148C99.4387 50.1146 102.338 49.6709 105.066 50.817C107.816 51.9493 110.372 54.2988 112.736 57.8655C115.126 61.4737 116.307 64.7645 116.278 67.7379C116.269 70.6976 114.731 73.1942 111.662 75.2277C108.593 77.2611 105.684 77.7117 102.934 76.5793C100.205 75.4332 97.6454 73.0561 95.2547 69.448ZM107.51 61.3279C106.122 59.2335 104.829 57.7776 103.631 56.9601C102.419 56.1218 101.098 56.1767 99.6672 57.1248C98.2363 58.0728 97.6707 59.2682 97.9701 60.711C98.2559 62.133 99.0926 63.8912 100.48 65.9856C101.415 67.3957 102.274 68.5123 103.058 69.3355C103.828 70.138 104.655 70.6647 105.537 70.9156C106.427 71.132 107.369 70.9104 108.364 70.2509C109.36 69.5914 109.921 68.8169 110.047 67.9272C110.181 67.0031 110.029 66.0299 109.59 65.0076C109.138 63.9645 108.444 62.738 107.51 61.3279Z" fill="white"/>
</svg>
