<svg width="20" height="21" viewBox="0 0 20 21" fill="none" xmlns="http://www.w3.org/2000/svg">
<path d="M10 0.5C15.52 0.5 20 4.98 20 10.5C20 16.02 15.52 20.5 10 20.5C4.48 20.5 0 16.02 0 10.5C0 4.98 4.48 0.5 10 0.5ZM10 2.5C5.58 2.5 2 6.08 2 10.5C2 14.92 5.58 18.5 10 18.5C14.42 18.5 18 14.92 18 10.5C18 6.08 14.42 2.5 10 2.5ZM10 5.5C11.82 5.5 13.413 6.473 14.288 7.928L12.574 8.957C12.3043 8.50724 11.9213 8.13605 11.4634 7.88045C11.0055 7.62484 10.4885 7.49374 9.96412 7.50023C9.43971 7.50672 8.92617 7.65056 8.4747 7.91742C8.02323 8.18428 7.6496 8.56483 7.39107 9.02112C7.13254 9.47742 6.99815 9.99351 7.00128 10.5179C7.00442 11.0424 7.14498 11.5568 7.40895 12.01C7.67292 12.4632 8.05107 12.8392 8.5057 13.1007C8.96033 13.3621 9.47556 13.4998 10 13.5C10.5181 13.5003 11.0275 13.3664 11.4785 13.1112C11.9294 12.856 12.3065 12.4883 12.573 12.044L14.288 13.072C13.726 14.0106 12.8716 14.739 11.8559 15.1453C10.8402 15.5517 9.71922 15.6137 8.6649 15.3217C7.61058 15.0298 6.68114 14.4 6.01914 13.529C5.35713 12.6581 4.99912 11.594 5 10.5C5 7.74 7.24 5.5 10 5.5Z" fill="#333333"/>
</svg>
