<svg width="13" height="77" viewBox="0 0 13 77" fill="none" xmlns="http://www.w3.org/2000/svg">
<path d="M0.848 70.464L2.032 70.464L2.032 75.312L5.792 75.312L5.792 71.376L6.976 71.376L6.976 75.312L12 75.312L12 76.768L0.848 76.768L0.848 70.464ZM7.584 69.2495C6.688 69.2495 5.904 69.0682 5.232 68.7055C4.54933 68.3428 4.02133 67.8468 3.648 67.2175C3.27467 66.5775 3.088 65.8682 3.088 65.0895C3.088 64.3215 3.25333 63.6548 3.584 63.0895C3.91467 62.5242 4.33067 62.1028 4.832 61.8255L3.232 61.8255L3.232 60.3535L12 60.3535L12 61.8255L10.368 61.8255C10.88 62.1135 11.3067 62.5455 11.648 63.1215C11.9787 63.6868 12.144 64.3482 12.144 65.1055C12.144 65.8842 11.952 66.5882 11.568 67.2175C11.184 67.8468 10.6453 68.3428 9.952 68.7055C9.25867 69.0682 8.46933 69.2495 7.584 69.2495ZM7.6 61.8255C6.93867 61.8255 6.36267 61.9588 5.872 62.2255C5.38133 62.4922 5.008 62.8548 4.752 63.3135C4.48533 63.7615 4.352 64.2575 4.352 64.8015C4.352 65.3455 4.48 65.8415 4.736 66.2895C4.992 66.7375 5.36533 67.0948 5.856 67.3615C6.34667 67.6282 6.92267 67.7615 7.584 67.7615C8.256 67.7615 8.84267 67.6282 9.344 67.3615C9.83467 67.0948 10.2133 66.7375 10.48 66.2895C10.736 65.8415 10.864 65.3455 10.864 64.8015C10.864 64.2575 10.736 63.7615 10.48 63.3135C10.2133 62.8548 9.83467 62.4922 9.344 62.2255C8.84267 61.9588 8.26133 61.8255 7.6 61.8255ZM7.6 58.437C6.69333 58.437 5.904 58.2557 5.232 57.893C4.54933 57.5303 4.02133 57.029 3.648 56.389C3.27467 55.7383 3.088 54.997 3.088 54.165C3.088 53.0877 3.34933 52.2023 3.872 51.509C4.39467 50.805 5.12 50.341 6.048 50.117L6.048 51.685C5.51467 51.8343 5.09333 52.1277 4.784 52.565C4.47467 52.9917 4.32 53.525 4.32 54.165C4.32 54.997 4.608 55.669 5.184 56.181C5.74933 56.693 6.55467 56.949 7.6 56.949C8.656 56.949 9.472 56.693 10.048 56.181C10.624 55.669 10.912 54.997 10.912 54.165C10.912 53.525 10.7627 52.9917 10.464 52.565C10.1653 52.1383 9.73867 51.845 9.184 51.685L9.184 50.117C10.08 50.3517 10.8 50.821 11.344 51.525C11.8773 52.229 12.144 53.109 12.144 54.165C12.144 54.997 11.9573 55.7383 11.584 56.389C11.2107 57.029 10.6827 57.5303 10 57.893C9.31733 58.2557 8.51733 58.437 7.6 58.437ZM7.28 40.1743C7.55733 40.1743 7.85067 40.1903 8.16 40.2223L8.16 47.2303C9.024 47.1769 9.70133 46.8836 10.192 46.3503C10.672 45.8063 10.912 45.1503 10.912 44.3823C10.912 43.7529 10.768 43.2303 10.48 42.8143C10.1813 42.3876 9.78667 42.0889 9.296 41.9183L9.296 40.3502C10.1387 40.5849 10.8267 41.0543 11.36 41.7583C11.8827 42.4623 12.144 43.3369 12.144 44.3823C12.144 45.2143 11.9573 45.9609 11.584 46.6223C11.2107 47.2729 10.6827 47.7849 10 48.1583C9.30667 48.5316 8.50667 48.7183 7.6 48.7183C6.69333 48.7183 5.89867 48.5369 5.216 48.1743C4.53333 47.8116 4.01067 47.3049 3.648 46.6543C3.27467 45.9929 3.088 45.2356 3.088 44.3823C3.088 43.5503 3.26933 42.8143 3.632 42.1743C3.99467 41.5343 4.496 41.0436 5.136 40.7023C5.76533 40.3503 6.48 40.1743 7.28 40.1743ZM6.976 41.6783C6.42133 41.6783 5.94667 41.8009 5.552 42.0463C5.14667 42.2916 4.84267 42.6276 4.64 43.0543C4.42667 43.4703 4.32 43.9343 4.32 44.4463C4.32 45.1823 4.55467 45.8116 5.024 46.3343C5.49333 46.8463 6.144 47.1396 6.976 47.2143L6.976 41.6783ZM4.864 36.7964C4.34133 36.4977 3.91467 36.0604 3.584 35.4844C3.25333 34.9084 3.088 34.2524 3.088 33.5164C3.088 32.727 3.27467 32.0177 3.648 31.3884C4.02134 30.759 4.54934 30.263 5.232 29.9004C5.904 29.5377 6.688 29.3564 7.584 29.3564C8.46934 29.3564 9.25867 29.5377 9.952 29.9004C10.6453 30.263 11.184 30.7644 11.568 31.4044C11.952 32.0337 12.144 32.7377 12.144 33.5164C12.144 34.2737 11.9787 34.9404 11.648 35.5164C11.3173 36.0817 10.896 36.5084 10.384 36.7964L12 36.7964L12 38.2524L0.160002 38.2524L0.160002 36.7964L4.864 36.7964ZM7.584 30.8444C6.92267 30.8444 6.34667 30.9777 5.856 31.2444C5.36534 31.511 4.992 31.8737 4.736 32.3324C4.48 32.7804 4.352 33.2764 4.352 33.8204C4.352 34.3537 4.48534 34.8497 4.752 35.3084C5.008 35.7564 5.38667 36.119 5.888 36.3964C6.37867 36.663 6.94933 36.7964 7.6 36.7964C8.26133 36.7964 8.84267 36.663 9.344 36.3964C9.83467 36.119 10.2133 35.7564 10.48 35.3084C10.736 34.8497 10.864 34.3537 10.864 33.8204C10.864 33.2764 10.736 32.7804 10.48 32.3324C10.2133 31.8737 9.83467 31.511 9.344 31.2444C8.84267 30.9777 8.256 30.8444 7.584 30.8444ZM12.144 23.6159C12.144 24.4372 11.9573 25.1839 11.584 25.8559C11.2107 26.5172 10.6827 27.0399 10 27.4239C9.30667 27.7972 8.50667 27.9839 7.6 27.9839C6.704 27.9839 5.91467 27.7919 5.232 27.4079C4.53867 27.0132 4.01067 26.4799 3.648 25.8079C3.27467 25.1359 3.088 24.3839 3.088 23.5519C3.088 22.7199 3.27467 21.9679 3.648 21.2959C4.01067 20.6239 4.53334 20.0959 5.216 19.7119C5.89867 19.3172 6.69334 19.1199 7.6 19.1199C8.50667 19.1199 9.30667 19.3225 10 19.7279C10.6827 20.1225 11.2107 20.6612 11.584 21.3439C11.9573 22.0265 12.144 22.7839 12.144 23.6159ZM10.864 23.6159C10.864 23.0932 10.7413 22.6025 10.496 22.1439C10.2507 21.6852 9.88267 21.3172 9.392 21.0399C8.90134 20.7519 8.304 20.6079 7.6 20.6079C6.896 20.6079 6.29867 20.7465 5.808 21.0239C5.31734 21.3012 4.95467 21.6639 4.72 22.1119C4.47467 22.5599 4.352 23.0452 4.352 23.5679C4.352 24.1012 4.47467 24.5919 4.72 25.0399C4.95467 25.4772 5.31734 25.8292 5.808 26.0959C6.29867 26.3625 6.896 26.4959 7.6 26.4959C8.31467 26.4959 8.91734 26.3679 9.408 26.1119C9.89867 25.8452 10.2667 25.4932 10.512 25.0559C10.7467 24.6185 10.864 24.1385 10.864 23.6159ZM12.144 13.3815C12.144 14.2028 11.9573 14.9495 11.584 15.6215C11.2107 16.2828 10.6827 16.8055 10 17.1895C9.30667 17.5628 8.50667 17.7495 7.6 17.7495C6.704 17.7495 5.91467 17.5575 5.232 17.1735C4.53867 16.7788 4.01067 16.2455 3.648 15.5735C3.27467 14.9015 3.088 14.1495 3.088 13.3175C3.088 12.4855 3.27467 11.7335 3.648 11.0615C4.01067 10.3895 4.53334 9.8615 5.216 9.4775C5.89867 9.08283 6.69334 8.8855 7.6 8.8855C8.50667 8.8855 9.30667 9.08817 10 9.4935C10.6827 9.88817 11.2107 10.4268 11.584 11.1095C11.9573 11.7922 12.144 12.5495 12.144 13.3815ZM10.864 13.3815C10.864 12.8588 10.7413 12.3682 10.496 11.9095C10.2507 11.4508 9.88267 11.0828 9.392 10.8055C8.90134 10.5175 8.304 10.3735 7.6 10.3735C6.896 10.3735 6.29867 10.5122 5.808 10.7895C5.31734 11.0668 4.95467 11.4295 4.72 11.8775C4.47467 12.3255 4.352 12.8108 4.352 13.3335C4.352 13.8668 4.47467 14.3575 4.72 14.8055C4.95467 15.2428 5.31734 15.5948 5.808 15.8615C6.29867 16.1282 6.896 16.2615 7.6 16.2615C8.31467 16.2615 8.91734 16.1335 9.408 15.8775C9.89867 15.6108 10.2667 15.2588 10.512 14.8215C10.7467 14.3842 10.864 13.9042 10.864 13.3815ZM12 2.07513L8.128 5.51513L12 5.51513L12 6.97113L0.160003 6.97113L0.160003 5.51513L7.12 5.51513L3.232 2.13913L3.232 0.107125L7.6 4.23513L12 0.0911253L12 2.07513Z" fill="#333333"/>
</svg>
