<svg width="17" height="82" viewBox="0 0 17 82" fill="none" xmlns="http://www.w3.org/2000/svg">
<path d="M0.848 80.312L12 80.312L12 81.768L0.848 81.768L0.848 80.312ZM3.072 73.5585C3.072 72.4918 3.39733 71.6278 4.048 70.9665C4.688 70.3052 5.616 69.9745 6.832 69.9745L12 69.9745L12 71.4145L7.04 71.4145C6.16533 71.4145 5.49867 71.6332 5.04 72.0705C4.57067 72.5078 4.336 73.1052 4.336 73.8625C4.336 74.6305 4.576 75.2438 5.056 75.7025C5.536 76.1505 6.23467 76.3745 7.152 76.3745L12 76.3745L12 77.8305L3.232 77.8305L3.232 76.3745L4.48 76.3745C4.032 76.0865 3.68533 75.6972 3.44 75.2065C3.19467 74.7052 3.072 74.1558 3.072 73.5585ZM12.144 64.4921C12.144 65.1641 12.032 65.7668 11.808 66.3001C11.5733 66.8335 11.2533 67.2548 10.848 67.5641C10.432 67.8735 9.95733 68.0441 9.424 68.0761L9.424 66.5721C9.86133 66.5295 10.2187 66.3268 10.496 65.9641C10.7733 65.5908 10.912 65.1055 10.912 64.5081C10.912 63.9535 10.7893 63.5161 10.544 63.1961C10.2987 62.8761 9.98933 62.7161 9.616 62.7161C9.232 62.7161 8.94933 62.8868 8.768 63.2281C8.576 63.5695 8.38933 64.0975 8.208 64.8121C8.03733 65.4628 7.86667 65.9961 7.696 66.4121C7.51467 66.8175 7.25333 67.1695 6.912 67.4681C6.56 67.7561 6.10133 67.9001 5.536 67.9001C5.088 67.9001 4.67733 67.7668 4.304 67.5001C3.93067 67.2335 3.63733 66.8548 3.424 66.3641C3.2 65.8735 3.088 65.3135 3.088 64.6841C3.088 63.7135 3.33333 62.9295 3.824 62.3321C4.31467 61.7348 4.98667 61.4148 5.84 61.3721L5.84 62.8281C5.38133 62.8601 5.01333 63.0468 4.736 63.3881C4.45867 63.7188 4.32 64.1668 4.32 64.7321C4.32 65.2548 4.432 65.6708 4.656 65.9801C4.88 66.2895 5.17333 66.4441 5.536 66.4441C5.824 66.4441 6.064 66.3535 6.256 66.1721C6.43733 65.9801 6.58667 65.7455 6.704 65.4681C6.81067 65.1801 6.93333 64.7855 7.072 64.2841C7.24267 63.6548 7.41333 63.1428 7.584 62.7481C7.744 62.3535 7.98933 62.0175 8.32 61.7401C8.65067 61.4521 9.08267 61.3028 9.616 61.2921C10.096 61.2921 10.528 61.4255 10.912 61.6921C11.296 61.9588 11.6 62.3375 11.824 62.8281C12.0373 63.3081 12.144 63.8628 12.144 64.4921ZM4.432 57.4608L9.6 57.4608C10.0267 57.4608 10.3307 57.3701 10.512 57.1888C10.6827 57.0074 10.768 56.6928 10.768 56.2448L10.768 55.1728L12 55.1728L12 56.4848C12 57.2954 11.8133 57.9034 11.44 58.3088C11.0667 58.7141 10.4533 58.9168 9.6 58.9168L4.432 58.9168L4.432 60.0528L3.232 60.0528L3.232 58.9168L1.024 58.9168L1.024 57.4608L3.232 57.4608L3.232 55.1727L4.432 55.1727L4.432 57.4608ZM7.584 53.9526C6.688 53.9526 5.904 53.7713 5.232 53.4086C4.54933 53.046 4.02133 52.55 3.648 51.9206C3.27467 51.2806 3.088 50.5713 3.088 49.7926C3.088 49.0246 3.25333 48.358 3.584 47.7926C3.91467 47.2273 4.33067 46.806 4.832 46.5286L3.232 46.5286L3.232 45.0566L12 45.0566L12 46.5286L10.368 46.5286C10.88 46.8166 11.3067 47.2486 11.648 47.8246C11.9787 48.39 12.144 49.0513 12.144 49.8086C12.144 50.5873 11.952 51.2913 11.568 51.9206C11.184 52.55 10.6453 53.046 9.952 53.4086C9.25867 53.7713 8.46933 53.9526 7.584 53.9526ZM7.6 46.5286C6.93867 46.5286 6.36267 46.662 5.872 46.9286C5.38133 47.1953 5.008 47.558 4.752 48.0166C4.48533 48.4646 4.352 48.9606 4.352 49.5046C4.352 50.0486 4.48 50.5446 4.736 50.9926C4.992 51.4406 5.36533 51.798 5.856 52.0646C6.34667 52.3313 6.92267 52.4646 7.584 52.4646C8.256 52.4646 8.84267 52.3313 9.344 52.0646C9.83467 51.798 10.2133 51.4406 10.48 50.9926C10.736 50.5446 10.864 50.0486 10.864 49.5046C10.864 48.9606 10.736 48.4646 10.48 48.0166C10.2133 47.558 9.83467 47.1953 9.344 46.9286C8.84267 46.662 8.26133 46.5286 7.6 46.5286ZM3.088 38.9801C3.088 38.2228 3.25333 37.5615 3.584 36.9961C3.91467 36.4201 4.33067 35.9935 4.832 35.7161L3.232 35.7161L3.232 34.2441L12.192 34.2441C12.992 34.2441 13.7013 34.4148 14.32 34.7561C14.9493 35.0975 15.44 35.5881 15.792 36.2281C16.144 36.8575 16.32 37.5935 16.32 38.4361C16.32 39.5881 16.048 40.5481 15.504 41.3161C14.96 42.0841 14.2187 42.5375 13.28 42.6761L13.28 41.2361C13.8133 41.0761 14.24 40.7455 14.56 40.2441C14.8907 39.7428 15.056 39.1401 15.056 38.4361C15.056 37.6361 14.8053 36.9855 14.304 36.4841C13.8027 35.9721 13.0987 35.7161 12.192 35.7161L10.352 35.7161C10.864 36.0041 11.2907 36.4308 11.632 36.9961C11.9733 37.5615 12.144 38.2228 12.144 38.9801C12.144 39.7588 11.952 40.4681 11.568 41.1081C11.184 41.7375 10.6453 42.2335 9.952 42.5961C9.25867 42.9588 8.46933 43.1401 7.584 43.1401C6.688 43.1401 5.904 42.9588 5.232 42.5961C4.54933 42.2335 4.02133 41.7375 3.648 41.1081C3.27467 40.4681 3.088 39.7588 3.088 38.9801ZM7.6 35.7161C6.93867 35.7161 6.36267 35.8495 5.872 36.1161C5.38134 36.3828 5.008 36.7455 4.752 37.2041C4.48534 37.6521 4.352 38.1481 4.352 38.6921C4.352 39.2361 4.48 39.7321 4.736 40.1801C4.992 40.6281 5.36534 40.9855 5.856 41.2521C6.34667 41.5188 6.92267 41.6521 7.584 41.6521C8.256 41.6521 8.84267 41.5188 9.344 41.2521C9.83467 40.9855 10.2133 40.6281 10.48 40.1801C10.736 39.7321 10.864 39.2361 10.864 38.6921C10.864 38.1481 10.736 37.6521 10.48 37.2041C10.2133 36.7455 9.83467 36.3828 9.344 36.1161C8.84267 35.8495 8.26134 35.7161 7.6 35.7161ZM4.656 30.3276C4.15467 30.0716 3.76534 29.709 3.488 29.2396C3.21067 28.7596 3.072 28.1783 3.072 27.4956L4.576 27.4956L4.576 27.8796C4.576 29.5116 5.46134 30.3276 7.232 30.3276L12 30.3276L12 31.7836L3.232 31.7836L3.232 30.3276L4.656 30.3276ZM7.584 26.3589C6.688 26.3589 5.904 26.1775 5.232 25.8149C4.54934 25.4522 4.02134 24.9562 3.648 24.3269C3.27467 23.6869 3.088 22.9775 3.088 22.1989C3.088 21.4309 3.25334 20.7642 3.584 20.1989C3.91467 19.6335 4.33067 19.2122 4.832 18.9349L3.232 18.9349L3.232 17.4629L12 17.4629L12 18.9349L10.368 18.9349C10.88 19.2229 11.3067 19.6549 11.648 20.2309C11.9787 20.7962 12.144 21.4575 12.144 22.2149C12.144 22.9935 11.952 23.6975 11.568 24.3269C11.184 24.9562 10.6453 25.4522 9.952 25.8149C9.25867 26.1775 8.46934 26.3589 7.584 26.3589ZM7.6 18.9349C6.93867 18.9349 6.36267 19.0682 5.872 19.3349C5.38134 19.6015 5.008 19.9642 4.752 20.4229C4.48534 20.8709 4.352 21.3669 4.352 21.9109C4.352 22.4549 4.48 22.9509 4.736 23.3989C4.992 23.8469 5.36534 24.2042 5.856 24.4709C6.34667 24.7375 6.92267 24.8709 7.584 24.8709C8.256 24.8709 8.84267 24.7375 9.344 24.4709C9.83467 24.2042 10.2133 23.8469 10.48 23.3989C10.736 22.9509 10.864 22.4549 10.864 21.9109C10.864 21.3669 10.736 20.8709 10.48 20.4229C10.2133 19.9642 9.83467 19.6015 9.344 19.3349C8.84267 19.0682 8.26134 18.9349 7.6 18.9349ZM3.072 4.45837C3.072 3.77571 3.216 3.16771 3.504 2.63438C3.78134 2.10104 4.20267 1.67971 4.768 1.37038C5.33334 1.06104 6.02134 0.906375 6.832 0.906375L12 0.906375L12 2.34638L7.04 2.34638C6.16534 2.34638 5.49867 2.56504 5.04 3.00238C4.57067 3.42904 4.336 4.01037 4.336 4.74637C4.336 5.50371 4.58134 6.10638 5.072 6.55438C5.552 7.00238 6.25067 7.22638 7.168 7.22638L12 7.22638L12 8.66638L7.04 8.66638C6.16534 8.66638 5.49867 8.88504 5.04 9.32238C4.57067 9.74904 4.336 10.3304 4.336 11.0664C4.336 11.8237 4.58134 12.4264 5.072 12.8744C5.552 13.3224 6.25067 13.5464 7.168 13.5464L12 13.5464L12 15.0024L3.232 15.0024L3.232 13.5464L4.496 13.5464C4.03734 13.2584 3.68534 12.8744 3.44 12.3944C3.19467 11.9037 3.072 11.365 3.072 10.7784C3.072 10.0424 3.23734 9.39171 3.568 8.82637C3.89867 8.26104 4.384 7.83971 5.024 7.56237C4.40534 7.31704 3.92534 6.91171 3.584 6.34637C3.24267 5.78104 3.072 5.15171 3.072 4.45837Z" fill="#333333"/>
</svg>
