<svg width="37" height="12" viewBox="0 0 37 12" fill="none" xmlns="http://www.w3.org/2000/svg">
<path d="M9 12H7.544L1.688 3.12L1.688 12H0.232L0.232 0.832H1.688L7.544 9.696L7.544 0.832H9L9 12ZM12.938 2.032V5.76L17.002 5.76V6.96L12.938 6.96L12.938 10.8H17.482V12H11.482L11.482 0.832H17.482V2.032L12.938 2.032ZM24.2451 6.432L27.6691 12H26.0211L23.3491 7.648L20.8051 12H19.1891L22.5971 6.432L19.1731 0.848L20.8051 0.848L23.4931 5.216L26.0531 0.848H27.6851L24.2451 6.432ZM36.4866 0.848V2.032H33.4466V12H31.9906V2.032H28.9346V0.848L36.4866 0.848Z" fill="#333333"/>
</svg>
