<svg width="24" height="417" viewBox="0 0 24 417" fill="none" xmlns="http://www.w3.org/2000/svg">
<path d="M6.848 409.464L8.032 409.464L8.032 414.312L11.792 414.312L11.792 410.376L12.976 410.376L12.976 414.312L18 414.312L18 415.768L6.848 415.768L6.848 409.464ZM13.584 408.25C12.688 408.25 11.904 408.068 11.232 407.706C10.5493 407.343 10.0213 406.847 9.648 406.218C9.27467 405.578 9.088 404.868 9.088 404.09C9.088 403.322 9.25333 402.655 9.584 402.089C9.91467 401.524 10.3307 401.103 10.832 400.826L9.232 400.825L9.232 399.353L18 399.354L18 400.826L16.368 400.826C16.88 401.114 17.3067 401.546 17.648 402.122C17.9787 402.687 18.144 403.348 18.144 404.106C18.144 404.884 17.952 405.588 17.568 406.218C17.184 406.847 16.6453 407.343 15.952 407.706C15.2587 408.068 14.4693 408.25 13.584 408.25ZM13.6 400.826C12.9387 400.826 12.3627 400.959 11.872 401.226C11.3813 401.492 11.008 401.855 10.752 402.313C10.4853 402.762 10.352 403.258 10.352 403.802C10.352 404.346 10.48 404.842 10.736 405.29C10.992 405.738 11.3653 406.095 11.856 406.362C12.3467 406.628 12.9227 406.762 13.584 406.762C14.256 406.762 14.8427 406.628 15.344 406.362C15.8347 406.095 16.2133 405.738 16.48 405.29C16.736 404.842 16.864 404.346 16.864 403.802C16.864 403.258 16.736 402.762 16.48 402.314C16.2133 401.855 15.8347 401.492 15.344 401.226C14.8427 400.959 14.2613 400.826 13.6 400.826ZM13.6 397.437C12.6933 397.437 11.904 397.256 11.232 396.893C10.5493 396.53 10.0213 396.029 9.648 395.389C9.27467 394.738 9.088 393.997 9.088 393.165C9.088 392.088 9.34933 391.202 9.872 390.509C10.3947 389.805 11.12 389.341 12.048 389.117L12.048 390.685C11.5147 390.834 11.0933 391.128 10.784 391.565C10.4747 391.992 10.32 392.525 10.32 393.165C10.32 393.997 10.608 394.669 11.184 395.181C11.7493 395.693 12.5547 395.949 13.6 395.949C14.656 395.949 15.472 395.693 16.048 395.181C16.624 394.669 16.912 393.997 16.912 393.165C16.912 392.525 16.7627 391.992 16.464 391.565C16.1653 391.138 15.7387 390.845 15.184 390.685L15.184 389.117C16.08 389.352 16.8 389.821 17.344 390.525C17.8773 391.229 18.144 392.109 18.144 393.165C18.144 393.997 17.9573 394.738 17.584 395.389C17.2107 396.029 16.6827 396.53 16 396.893C15.3173 397.256 14.5173 397.437 13.6 397.437ZM13.28 379.174C13.5573 379.174 13.8507 379.19 14.16 379.222L14.16 386.23C15.024 386.177 15.7013 385.884 16.192 385.35C16.672 384.806 16.912 384.15 16.912 383.382C16.912 382.753 16.768 382.23 16.48 381.814C16.1813 381.388 15.7867 381.089 15.296 380.918L15.296 379.35C16.1387 379.585 16.8267 380.054 17.36 380.758C17.8827 381.462 18.144 382.337 18.144 383.382C18.144 384.214 17.9573 384.961 17.584 385.622C17.2107 386.273 16.6827 386.785 16 387.158C15.3067 387.532 14.5067 387.718 13.6 387.718C12.6933 387.718 11.8987 387.537 11.216 387.174C10.5333 386.812 10.0107 386.305 9.648 385.654C9.27467 384.993 9.088 384.236 9.088 383.382C9.088 382.55 9.26933 381.814 9.632 381.174C9.99467 380.534 10.496 380.044 11.136 379.702C11.7653 379.35 12.48 379.174 13.28 379.174ZM12.976 380.678C12.4213 380.678 11.9467 380.801 11.552 381.046C11.1467 381.292 10.8427 381.628 10.64 382.054C10.4267 382.47 10.32 382.934 10.32 383.446C10.32 384.182 10.5547 384.812 11.024 385.334C11.4933 385.846 12.144 386.14 12.976 386.214L12.976 380.678ZM10.864 375.796C10.3413 375.498 9.91467 375.06 9.584 374.484C9.25333 373.908 9.088 373.252 9.088 372.516C9.088 371.727 9.27467 371.018 9.648 370.388C10.0213 369.759 10.5493 369.263 11.232 368.9C11.904 368.538 12.688 368.356 13.584 368.356C14.4693 368.356 15.2587 368.538 15.952 368.9C16.6453 369.263 17.184 369.764 17.568 370.404C17.952 371.034 18.144 371.738 18.144 372.516C18.144 373.274 17.9787 373.94 17.648 374.516C17.3173 375.082 16.896 375.508 16.384 375.796L18 375.796L18 377.252L6.16 377.252L6.16 375.796L10.864 375.796ZM13.584 369.844C12.9227 369.844 12.3467 369.978 11.856 370.244C11.3653 370.511 10.992 370.874 10.736 371.332C10.48 371.78 10.352 372.276 10.352 372.82C10.352 373.354 10.4853 373.85 10.752 374.308C11.008 374.756 11.3867 375.119 11.888 375.396C12.3787 375.663 12.9493 375.796 13.6 375.796C14.2613 375.796 14.8427 375.663 15.344 375.396C15.8347 375.119 16.2133 374.756 16.48 374.308C16.736 373.85 16.864 373.354 16.864 372.82C16.864 372.276 16.736 371.78 16.48 371.332C16.2133 370.874 15.8347 370.511 15.344 370.244C14.8427 369.978 14.256 369.844 13.584 369.844ZM18.144 362.616C18.144 363.437 17.9573 364.184 17.584 364.856C17.2107 365.517 16.6827 366.04 16 366.424C15.3067 366.797 14.5067 366.984 13.6 366.984C12.704 366.984 11.9147 366.792 11.232 366.408C10.5387 366.013 10.0107 365.48 9.648 364.808C9.27467 364.136 9.088 363.384 9.088 362.552C9.088 361.72 9.27467 360.968 9.648 360.296C10.0107 359.624 10.5333 359.096 11.216 358.712C11.8987 358.317 12.6933 358.12 13.6 358.12C14.5067 358.12 15.3067 358.323 16 358.728C16.6827 359.123 17.2107 359.661 17.584 360.344C17.9573 361.027 18.144 361.784 18.144 362.616ZM16.864 362.616C16.864 362.093 16.7413 361.603 16.496 361.144C16.2507 360.685 15.8827 360.317 15.392 360.04C14.9013 359.752 14.304 359.608 13.6 359.608C12.896 359.608 12.2987 359.747 11.808 360.024C11.3173 360.301 10.9547 360.664 10.72 361.112C10.4747 361.56 10.352 362.045 10.352 362.568C10.352 363.101 10.4747 363.592 10.72 364.04C10.9547 364.477 11.3173 364.829 11.808 365.096C12.2987 365.363 12.896 365.496 13.6 365.496C14.3147 365.496 14.9173 365.368 15.408 365.112C15.8987 364.845 16.2667 364.493 16.512 364.056C16.7467 363.619 16.864 363.139 16.864 362.616ZM18.144 352.382C18.144 353.203 17.9573 353.95 17.584 354.622C17.2107 355.283 16.6827 355.806 16 356.19C15.3067 356.563 14.5067 356.75 13.6 356.75C12.704 356.75 11.9147 356.558 11.232 356.174C10.5387 355.779 10.0107 355.246 9.648 354.574C9.27467 353.902 9.088 353.15 9.088 352.318C9.088 351.485 9.27467 350.733 9.648 350.062C10.0107 349.389 10.5333 348.861 11.216 348.478C11.8987 348.083 12.6933 347.886 13.6 347.886C14.5067 347.886 15.3067 348.088 16 348.494C16.6827 348.888 17.2107 349.427 17.584 350.11C17.9573 350.792 18.144 351.55 18.144 352.382ZM16.864 352.382C16.864 351.859 16.7413 351.368 16.496 350.91C16.2507 350.451 15.8827 350.083 15.392 349.806C14.9013 349.518 14.304 349.374 13.6 349.374C12.896 349.374 12.2987 349.512 11.808 349.79C11.3173 350.067 10.9547 350.43 10.72 350.878C10.4747 351.325 10.352 351.811 10.352 352.334C10.352 352.867 10.4747 353.358 10.72 353.806C10.9547 354.243 11.3173 354.595 11.808 354.862C12.2987 355.128 12.896 355.262 13.6 355.262C14.3147 355.262 14.9173 355.134 15.408 354.878C15.8987 354.611 16.2667 354.259 16.512 353.822C16.7467 353.384 16.864 352.904 16.864 352.382ZM18 341.075L14.128 344.515L18 344.515L18 345.971L6.16 345.971L6.16 344.515L13.12 344.515L9.232 341.139L9.232 339.107L13.6 343.235L18 339.091L18 341.075Z" fill="#333333"/>
<circle cx="12" cy="288" r="2" transform="rotate(-90 12 288)" fill="#333333"/>
<path d="M6.848 235.312L18 235.312L18 236.768L6.848 236.768L6.848 235.312ZM9.072 228.559C9.072 227.492 9.39733 226.628 10.048 225.966C10.688 225.305 11.616 224.975 12.832 224.975L18 224.975L18 226.415L13.04 226.415C12.1653 226.415 11.4987 226.633 11.04 227.071C10.5707 227.508 10.336 228.105 10.336 228.863C10.336 229.631 10.576 230.244 11.056 230.703C11.536 231.151 12.2347 231.375 13.152 231.375L18 231.375L18 232.831L9.232 232.831L9.232 231.375L10.48 231.375C10.032 231.087 9.68533 230.697 9.44 230.207C9.19467 229.705 9.072 229.156 9.072 228.559ZM18.144 219.492C18.144 220.164 18.032 220.767 17.808 221.3C17.5733 221.833 17.2533 222.255 16.848 222.564C16.432 222.873 15.9573 223.044 15.424 223.076L15.424 221.572C15.8613 221.529 16.2187 221.327 16.496 220.964C16.7733 220.591 16.912 220.105 16.912 219.508C16.912 218.953 16.7893 218.516 16.544 218.196C16.2987 217.876 15.9893 217.716 15.616 217.716C15.232 217.716 14.9493 217.887 14.768 218.228C14.576 218.569 14.3893 219.097 14.208 219.812C14.0373 220.463 13.8667 220.996 13.696 221.412C13.5147 221.817 13.2533 222.169 12.912 222.468C12.56 222.756 12.1013 222.9 11.536 222.9C11.088 222.9 10.6773 222.767 10.304 222.5C9.93067 222.233 9.63733 221.855 9.424 221.364C9.2 220.873 9.088 220.313 9.088 219.684C9.088 218.713 9.33333 217.929 9.824 217.332C10.3147 216.735 10.9867 216.415 11.84 216.372L11.84 217.828C11.3813 217.86 11.0133 218.047 10.736 218.388C10.4587 218.719 10.32 219.167 10.32 219.732C10.32 220.255 10.432 220.671 10.656 220.98C10.88 221.289 11.1733 221.444 11.536 221.444C11.824 221.444 12.064 221.353 12.256 221.172C12.4373 220.98 12.5867 220.745 12.704 220.468C12.8107 220.18 12.9333 219.785 13.072 219.284C13.2427 218.655 13.4133 218.143 13.584 217.748C13.744 217.353 13.9893 217.017 14.32 216.74C14.6507 216.452 15.0827 216.303 15.616 216.292C16.096 216.292 16.528 216.425 16.912 216.692C17.296 216.959 17.6 217.337 17.824 217.828C18.0373 218.308 18.144 218.863 18.144 219.492ZM10.432 212.461L15.6 212.461C16.0267 212.461 16.3307 212.37 16.512 212.189C16.6827 212.007 16.768 211.693 16.768 211.245L16.768 210.173L18 210.173L18 211.485C18 212.295 17.8133 212.903 17.44 213.309C17.0667 213.714 16.4533 213.917 15.6 213.917L10.432 213.917L10.432 215.053L9.232 215.053L9.232 213.917L7.024 213.917L7.024 212.461L9.232 212.461L9.232 210.173L10.432 210.173L10.432 212.461ZM13.584 208.953C12.688 208.953 11.904 208.771 11.232 208.409C10.5493 208.046 10.0213 207.55 9.648 206.921C9.27467 206.281 9.088 205.571 9.088 204.793C9.088 204.025 9.25333 203.358 9.584 202.793C9.91467 202.227 10.3307 201.806 10.832 201.529L9.232 201.529L9.232 200.057L18 200.057L18 201.529L16.368 201.529C16.88 201.817 17.3067 202.249 17.648 202.825C17.9787 203.39 18.144 204.051 18.144 204.809C18.144 205.587 17.952 206.291 17.568 206.921C17.184 207.55 16.6453 208.046 15.952 208.409C15.2587 208.771 14.4693 208.953 13.584 208.953ZM13.6 201.529C12.9387 201.529 12.3627 201.662 11.872 201.929C11.3813 202.195 11.008 202.558 10.752 203.017C10.4853 203.465 10.352 203.961 10.352 204.505C10.352 205.049 10.48 205.545 10.736 205.993C10.992 206.441 11.3653 206.798 11.856 207.065C12.3467 207.331 12.9227 207.465 13.584 207.465C14.256 207.465 14.8427 207.331 15.344 207.065C15.8347 206.798 16.2133 206.441 16.48 205.993C16.736 205.545 16.864 205.049 16.864 204.505C16.864 203.961 16.736 203.465 16.48 203.017C16.2133 202.558 15.8347 202.195 15.344 201.929C14.8427 201.662 14.2613 201.529 13.6 201.529ZM9.088 193.98C9.088 193.223 9.25333 192.561 9.584 191.996C9.91467 191.42 10.3307 190.993 10.832 190.716L9.232 190.716L9.232 189.244L18.192 189.244C18.992 189.244 19.7013 189.415 20.32 189.756C20.9493 190.097 21.44 190.588 21.792 191.228C22.144 191.857 22.32 192.593 22.32 193.436C22.32 194.588 22.048 195.548 21.504 196.316C20.96 197.084 20.2187 197.537 19.28 197.676L19.28 196.236C19.8133 196.076 20.24 195.745 20.56 195.244C20.8907 194.743 21.056 194.14 21.056 193.436C21.056 192.636 20.8053 191.985 20.304 191.484C19.8027 190.972 19.0987 190.716 18.192 190.716L16.352 190.716C16.864 191.004 17.2907 191.431 17.632 191.996C17.9733 192.561 18.144 193.223 18.144 193.98C18.144 194.759 17.952 195.468 17.568 196.108C17.184 196.737 16.6453 197.233 15.952 197.596C15.2587 197.959 14.4693 198.14 13.584 198.14C12.688 198.14 11.904 197.959 11.232 197.596C10.5493 197.233 10.0213 196.737 9.648 196.108C9.27467 195.468 9.088 194.759 9.088 193.98ZM13.6 190.716C12.9387 190.716 12.3627 190.849 11.872 191.116C11.3813 191.383 11.008 191.745 10.752 192.204C10.4853 192.652 10.352 193.148 10.352 193.692C10.352 194.236 10.48 194.732 10.736 195.18C10.992 195.628 11.3653 195.985 11.856 196.252C12.3467 196.519 12.9227 196.652 13.584 196.652C14.256 196.652 14.8427 196.519 15.344 196.252C15.8347 195.985 16.2133 195.628 16.48 195.18C16.736 194.732 16.864 194.236 16.864 193.692C16.864 193.148 16.736 192.652 16.48 192.204C16.2133 191.745 15.8347 191.383 15.344 191.116C14.8427 190.849 14.2613 190.716 13.6 190.716ZM10.656 185.328C10.1547 185.072 9.76534 184.709 9.488 184.24C9.21067 183.76 9.072 183.178 9.072 182.496L10.576 182.496L10.576 182.88C10.576 184.512 11.4613 185.328 13.232 185.328L18 185.328L18 186.784L9.232 186.784L9.232 185.328L10.656 185.328ZM13.584 181.359C12.688 181.359 11.904 181.178 11.232 180.815C10.5493 180.452 10.0213 179.956 9.648 179.327C9.27467 178.687 9.088 177.978 9.088 177.199C9.088 176.431 9.25334 175.764 9.584 175.199C9.91467 174.634 10.3307 174.212 10.832 173.935L9.232 173.935L9.232 172.463L18 172.463L18 173.935L16.368 173.935C16.88 174.223 17.3067 174.655 17.648 175.231C17.9787 175.796 18.144 176.458 18.144 177.215C18.144 177.994 17.952 178.698 17.568 179.327C17.184 179.956 16.6453 180.452 15.952 180.815C15.2587 181.178 14.4693 181.359 13.584 181.359ZM13.6 173.935C12.9387 173.935 12.3627 174.068 11.872 174.335C11.3813 174.602 11.008 174.964 10.752 175.423C10.4853 175.871 10.352 176.367 10.352 176.911C10.352 177.455 10.48 177.951 10.736 178.399C10.992 178.847 11.3653 179.204 11.856 179.471C12.3467 179.738 12.9227 179.871 13.584 179.871C14.256 179.871 14.8427 179.738 15.344 179.471C15.8347 179.204 16.2133 178.847 16.48 178.399C16.736 177.951 16.864 177.455 16.864 176.911C16.864 176.367 16.736 175.871 16.48 175.423C16.2133 174.964 15.8347 174.602 15.344 174.335C14.8427 174.068 14.2613 173.935 13.6 173.935ZM9.072 159.458C9.072 158.776 9.216 158.168 9.504 157.634C9.78134 157.101 10.2027 156.68 10.768 156.37C11.3333 156.061 12.0213 155.906 12.832 155.906L18 155.906L18 157.346L13.04 157.346C12.1653 157.346 11.4987 157.565 11.04 158.002C10.5707 158.429 10.336 159.01 10.336 159.746C10.336 160.504 10.5813 161.106 11.072 161.554C11.552 162.002 12.2507 162.226 13.168 162.226L18 162.226L18 163.666L13.04 163.666C12.1653 163.666 11.4987 163.885 11.04 164.322C10.5707 164.749 10.336 165.33 10.336 166.066C10.336 166.824 10.5813 167.426 11.072 167.874C11.552 168.322 12.2507 168.546 13.168 168.546L18 168.546L18 170.002L9.232 170.002L9.232 168.546L10.496 168.546C10.0373 168.258 9.68534 167.874 9.44 167.394C9.19467 166.904 9.072 166.365 9.072 165.778C9.072 165.042 9.23734 164.392 9.568 163.826C9.89867 163.261 10.384 162.84 11.024 162.562C10.4053 162.317 9.92534 161.912 9.584 161.346C9.24267 160.781 9.072 160.152 9.072 159.458Z" fill="#333333"/>
<circle cx="12" cy="104" r="2" transform="rotate(-90 12 104)" fill="#333333"/>
<path d="M6.848 45.904L8.032 45.904L8.032 48.944L18 48.944L18 50.4L8.032 50.4L8.032 53.456L6.848 53.456L6.848 45.904ZM9.232 32.4317L18 35.1678L18 36.6717L11.04 38.7838L18 40.8958L18 42.3998L9.232 45.1518L9.232 43.6638L16.592 41.6478L9.232 39.4718L9.232 37.9838L16.608 35.8557L9.232 33.8718L9.232 32.4317ZM7.808 30.2348C7.808 30.5121 7.712 30.7468 7.52 30.9388C7.328 31.1308 7.09333 31.2268 6.816 31.2268C6.53867 31.2268 6.304 31.1308 6.112 30.9388C5.92 30.7468 5.824 30.5121 5.824 30.2348C5.824 29.9681 5.92 29.7441 6.112 29.5628C6.304 29.3708 6.53867 29.2748 6.816 29.2748C7.09333 29.2748 7.328 29.3708 7.52 29.5628C7.712 29.7441 7.808 29.9681 7.808 30.2348ZM9.232 29.5308L18 29.5308L18 30.9868L9.232 30.9868L9.232 29.5308ZM10.432 25.2733L15.6 25.2733C16.0267 25.2733 16.3307 25.1826 16.512 25.0013C16.6827 24.8199 16.768 24.5053 16.768 24.0573L16.768 22.9853L18 22.9853L18 24.2973C18 25.1079 17.8133 25.7159 17.44 26.1213C17.0667 26.5266 16.4533 26.7293 15.6 26.7293L10.432 26.7293L10.432 27.8653L9.232 27.8653L9.232 26.7293L7.024 26.7293L7.024 25.2733L9.232 25.2733L9.232 22.9852L10.432 22.9852L10.432 25.2733ZM10.432 19.4451L15.6 19.4451C16.0267 19.4451 16.3307 19.3545 16.512 19.1731C16.6827 18.9918 16.768 18.6771 16.768 18.2291L16.768 17.1571L18 17.1571L18 18.4691C18 19.2798 17.8133 19.8878 17.44 20.2931C17.0667 20.6985 16.4533 20.9011 15.6 20.9011L10.432 20.9011L10.432 22.0371L9.232 22.0371L9.232 20.9011L7.024 20.9011L7.024 19.4451L9.232 19.4451L9.232 17.1571L10.432 17.1571L10.432 19.4451ZM13.28 7.393C13.5573 7.393 13.8507 7.409 14.16 7.441L14.16 14.449C15.024 14.3957 15.7013 14.1023 16.192 13.569C16.672 13.025 16.912 12.369 16.912 11.601C16.912 10.9717 16.768 10.449 16.48 10.033C16.1813 9.60633 15.7867 9.30767 15.296 9.137L15.296 7.569C16.1387 7.80367 16.8267 8.273 17.36 8.977C17.8827 9.681 18.144 10.5557 18.144 11.601C18.144 12.433 17.9573 13.1797 17.584 13.841C17.2107 14.4917 16.6827 15.0037 16 15.377C15.3067 15.7503 14.5067 15.937 13.6 15.937C12.6933 15.937 11.8987 15.7557 11.216 15.393C10.5333 15.0303 10.0107 14.5237 9.648 13.873C9.27467 13.2117 9.088 12.4543 9.088 11.601C9.088 10.769 9.26933 10.033 9.632 9.393C9.99467 8.753 10.496 8.26233 11.136 7.921C11.7653 7.569 12.48 7.393 13.28 7.393ZM12.976 8.897C12.4213 8.897 11.9467 9.01967 11.552 9.265C11.1467 9.51033 10.8427 9.84633 10.64 10.273C10.4267 10.689 10.32 11.153 10.32 11.665C10.32 12.401 10.5547 13.0303 11.024 13.553C11.4933 14.065 12.144 14.3583 12.976 14.433L12.976 8.897ZM10.656 4.01513C10.1547 3.75913 9.76534 3.39646 9.488 2.92713C9.21067 2.44713 9.072 1.86579 9.072 1.18312L10.576 1.18313L10.576 1.56713C10.576 3.19913 11.4613 4.01513 13.232 4.01513L18 4.01513L18 5.47113L9.232 5.47113L9.232 4.01513L10.656 4.01513Z" fill="#333333"/>
</svg>
