<svg width="38" height="12" viewBox="0 0 38 12" fill="none" xmlns="http://www.w3.org/2000/svg">
<path d="M8.188 4.112C8.188 5.04 7.868 5.81333 7.228 6.432C6.59867 7.04 5.63333 7.344 4.332 7.344H2.188V12H0.732L0.732 0.848H4.332C5.59067 0.848 6.54533 1.152 7.196 1.76C7.85733 2.368 8.188 3.152 8.188 4.112ZM4.332 6.144C5.14267 6.144 5.74 5.968 6.124 5.616C6.508 5.264 6.7 4.76267 6.7 4.112C6.7 2.736 5.91067 2.048 4.332 2.048H2.188L2.188 6.144H4.332ZM15.8696 12L13.2136 7.44H11.4536L11.4536 12H9.99763L9.99763 0.848H13.5976C14.4403 0.848 15.1496 0.992 15.7256 1.28C16.3123 1.568 16.7496 1.95733 17.0376 2.448C17.3256 2.93867 17.4696 3.49867 17.4696 4.128C17.4696 4.896 17.2456 5.57333 16.7976 6.16C16.3603 6.74667 15.699 7.136 14.8136 7.328L17.6136 12H15.8696ZM11.4536 6.272H13.5976C14.387 6.272 14.979 6.08 15.3736 5.696C15.7683 5.30133 15.9656 4.77867 15.9656 4.128C15.9656 3.46667 15.7683 2.95467 15.3736 2.592C14.9896 2.22933 14.3976 2.048 13.5976 2.048H11.4536V6.272ZM21.188 2.032V5.76H25.252V6.96H21.188V10.8H25.732V12H19.732V0.832L25.732 0.832V2.032H21.188ZM37.1511 0.848L32.9431 12H31.2631L27.0551 0.848H28.6071L32.1111 10.464L35.6151 0.848L37.1511 0.848Z" fill="#333333"/>
</svg>
