<svg width="145" height="126" viewBox="0 0 145 126" fill="none" xmlns="http://www.w3.org/2000/svg">
<path d="M142.878 66.8376L144.792 67.0639L142.878 66.8376ZM101.591 125.002L123.551 121.377L109.432 104.171L101.591 125.002ZM0.447837 5.75859C23.0747 3.87175 54.868 4.43467 77.0195 12.0679C88.115 15.8913 96.4052 21.3566 100.17 28.7853C103.87 36.0854 103.476 45.8664 95.8524 59.0588L99.1904 60.9876C107.18 47.1605 108.116 35.9351 103.609 27.0425C99.1671 18.2784 89.7139 12.3646 78.2755 8.42304C55.3591 0.52628 22.9226 0.0159084 0.127471 1.91678L0.447837 5.75859ZM95.8524 59.0588C86.3701 75.4688 74.3928 81.881 62.5824 82.5155C50.6396 83.157 38.5007 77.9088 28.8476 70.2606C19.1616 62.5865 12.3314 52.7797 10.6892 44.7357C9.87629 40.7541 10.3653 37.4018 12.1406 34.8841C13.9142 32.3687 17.2236 30.329 22.8036 29.5008L22.2377 25.6875C15.9954 26.614 11.5621 29.0146 8.98995 32.6625C6.41945 36.308 5.95954 40.8419 6.91193 45.5068C8.80018 54.7558 16.3571 65.283 26.4535 73.2823C36.5827 81.3076 49.6211 87.0724 62.7892 86.3651C76.0896 85.6506 89.1566 78.3519 99.1904 60.9876L95.8524 59.0588ZM22.8036 29.5008C46.1842 26.0307 76.9683 27.6935 101.375 34.2481C113.587 37.5277 124.041 41.9902 131.162 47.5193C138.257 53.0279 141.818 59.3875 140.964 66.6113L144.792 67.0639C145.861 58.0245 141.249 50.4697 133.526 44.4742C125.83 38.4991 114.821 33.8676 102.375 30.5248C77.4632 23.8346 46.1462 22.1389 22.2377 25.6875L22.8036 29.5008ZM140.964 66.6113C138.867 84.349 125.742 101.167 113.676 112.598L116.327 115.397C128.564 103.805 142.531 86.1902 144.792 67.0639L140.964 66.6113Z" fill="#F27676"/>
</svg>
