<svg width="14" height="53" viewBox="0 0 14 53" fill="none" xmlns="http://www.w3.org/2000/svg">
<path d="M1.848 44.904L3.032 44.904L3.032 47.944L13 47.944L13 49.4L3.032 49.4L3.032 52.456L1.848 52.456L1.848 44.904ZM4.232 31.4317L13 34.1678L13 35.6717L6.04 37.7838L13 39.8958L13 41.3998L4.232 44.1518L4.232 42.6638L11.592 40.6478L4.232 38.4718L4.232 36.9838L11.608 34.8557L4.232 32.8718L4.232 31.4317ZM2.808 29.2348C2.808 29.5121 2.712 29.7468 2.52 29.9388C2.328 30.1308 2.09333 30.2268 1.816 30.2268C1.53867 30.2268 1.304 30.1308 1.112 29.9388C0.92 29.7468 0.824 29.5121 0.824 29.2348C0.824 28.9681 0.920001 28.7441 1.112 28.5628C1.304 28.3708 1.53867 28.2748 1.816 28.2748C2.09333 28.2748 2.328 28.3708 2.52 28.5628C2.712 28.7441 2.808 28.9681 2.808 29.2348ZM4.232 28.5308L13 28.5308L13 29.9868L4.232 29.9868L4.232 28.5308ZM5.432 24.2733L10.6 24.2733C11.0267 24.2733 11.3307 24.1826 11.512 24.0013C11.6827 23.8199 11.768 23.5053 11.768 23.0573L11.768 21.9853L13 21.9853L13 23.2973C13 24.1079 12.8133 24.7159 12.44 25.1213C12.0667 25.5266 11.4533 25.7293 10.6 25.7293L5.432 25.7293L5.432 26.8653L4.232 26.8653L4.232 25.7293L2.024 25.7293L2.024 24.2733L4.232 24.2733L4.232 21.9852L5.432 21.9852L5.432 24.2733ZM5.432 18.4451L10.6 18.4451C11.0267 18.4451 11.3307 18.3545 11.512 18.1731C11.6827 17.9918 11.768 17.6771 11.768 17.2291L11.768 16.1571L13 16.1571L13 17.4691C13 18.2798 12.8133 18.8878 12.44 19.2931C12.0667 19.6985 11.4533 19.9011 10.6 19.9011L5.432 19.9011L5.432 21.0371L4.232 21.0371L4.232 19.9011L2.024 19.9011L2.024 18.4451L4.232 18.4451L4.232 16.1571L5.432 16.1571L5.432 18.4451ZM8.28 6.393C8.55734 6.393 8.85067 6.409 9.16 6.441L9.16 13.449C10.024 13.3957 10.7013 13.1023 11.192 12.569C11.672 12.025 11.912 11.369 11.912 10.601C11.912 9.97167 11.768 9.449 11.48 9.033C11.1813 8.60633 10.7867 8.30767 10.296 8.137L10.296 6.569C11.1387 6.80367 11.8267 7.273 12.36 7.977C12.8827 8.681 13.144 9.55567 13.144 10.601C13.144 11.433 12.9573 12.1797 12.584 12.841C12.2107 13.4917 11.6827 14.0037 11 14.377C10.3067 14.7503 9.50667 14.937 8.6 14.937C7.69333 14.937 6.89867 14.7557 6.216 14.393C5.53333 14.0303 5.01067 13.5237 4.648 12.873C4.27467 12.2117 4.088 11.4543 4.088 10.601C4.088 9.769 4.26933 9.033 4.632 8.393C4.99467 7.753 5.496 7.26233 6.136 6.921C6.76534 6.569 7.48 6.393 8.28 6.393ZM7.976 7.897C7.42133 7.897 6.94667 8.01967 6.552 8.265C6.14667 8.51033 5.84267 8.84633 5.64 9.273C5.42667 9.689 5.32 10.153 5.32 10.665C5.32 11.401 5.55467 12.0303 6.024 12.553C6.49333 13.065 7.144 13.3583 7.976 13.433L7.976 7.897ZM5.656 3.01513C5.15467 2.75913 4.76534 2.39646 4.488 1.92713C4.21067 1.44713 4.072 0.865792 4.072 0.183125L5.576 0.183125L5.576 0.567125C5.576 2.19913 6.46134 3.01513 8.232 3.01513L13 3.01513L13 4.47113L4.232 4.47113L4.232 3.01513L5.656 3.01513Z" fill="#333333"/>
</svg>
